<svg fill="currentColor" xmlns="http://www.w3.org/2000/svg" viewBox="0 0 1000 1000">
    <path 
        d="m305.5 73.3-15 30-13-4.1c-28.2-8.9-59.7-9.5-91-1.6C75.3 125.7 22.4 255.1 82.2 352.5c15.5 25.2 47.2 54.7 69.2 64.4 3 1.4 5.5 3 5.5 3.9 0 .7-3.2 10.7-7.2 22.2-12.1 35.2-16.3 58.6-17.3 99.2-.7 22.9-.2 41.5 1.3 52.5 2.3 18.8 10 52.4 15.9 69.4 2.1 5.9 3.6 10.7 3.4 10.9-.4.2-14.1 6.1-30.9 13.4-16.6 7.2-30.6 13.2-30.9 13.4-.9.7 144.6 58.3 148.4 58.6 2.9.4 8-11.3 32.7-73.6 16.3-40.8 29.1-74.4 28.8-74.9-.4-.4-13 4.7-28.2 11.3-15 6.6-28.2 12.3-29.5 12.9-3 1.3-10.5-24.1-14.1-47.9-5.2-35.7-1.4-78.3 10-112.4 20.7-62 69.9-117.1 128.9-144.6 32.7-15.2 58.4-21.5 95.4-22.7 44.9-1.8 77.9 5.4 118 25.2 27.7 13.8 48.4 29 69.2 50.8 34.8 36.5 57.4 81.9 65 131.2 3.6 21.8 2.5 68.5-1.8 87.9-6.8 30.6-20.2 61.8-37.2 87.6-5.2 7.9-18.6 23.6-30 35-30.6 31.1-59.9 49.2-100.6 62.2-34.9 11.1-28.1 10.9-277.8 10.9H40.8v96.6h219.5c130.5 0 227.7-.7 239.9-1.8 137.8-12 253.1-102.8 296.5-233.3 40.4-121.4 9.1-255.2-80.8-346.2-53.4-54.2-120.1-87.9-195-98.8-22.7-3.2-70.2-3.8-91.3-.9-38.2 5.4-75.6 16.8-108.3 33.1-37.4 18.8-64 38.4-94.2 69.5-10.2 10.4-19.5 18.9-20.6 18.9-5 0-20.7-9.1-29.3-16.8-6.4-5.9-11.4-12.7-16.1-22.2-6.1-12.2-6.8-15.2-7.3-30.4-.5-13.9 0-18.6 3.2-27.7 11.1-30.2 36.3-49.3 67.2-50.9 8.2-.5 16.8-.4 19.3.4l4.7 1.1-14.5 28.8c-7.9 15.9-13.9 29.1-13.6 29.5.9.9 149.8-49.2 151.9-51.1 1.3-1.1-47.7-149.2-50.4-152.3-.8-1-7.9 11.9-16.1 28.5zM920.9 783.7c-30.8-31.3-56.4-56.6-57-56.5-.5.2-1 13.8-1.1 30.4 0 16.4-.1 30.8-.1 32.2l-.1 9.5H758.4l-12.2 13.4c-23.4 25.6-67 58.8-97.9 74.4-7.9 3.8-14.1 7.3-14.1 7.9s72.4.9 160.9.9h67c0 6.2-.1 15.6-.1 26-.1 18.1-.2 33.3-.2 33.7.3 1.1 111.5-108.9 113.4-112.2 1.4-2.6-7.2-12.1-54.3-59.7z"
    />
</svg>